<?xml version="1.0" encoding="UTF-8"?>
<!-- Created with Inkscape (http://www.inkscape.org/) -->
<svg width="85.203mm" height="19.249mm" viewBox="0 0 85.203 19.249" xmlns="http://www.w3.org/2000/svg">
 <g transform="translate(-48.23 -134.52)">
  <path transform="matrix(.26458 0 0 .26458 48.23 134.52)" d="m36.377 0a36.376 36.376 0 0 0-36.377 36.377 36.376 36.376 0 0 0 36.377 36.375 36.376 36.376 0 0 0 36.375-36.375 36.376 36.376 0 0 0-36.375-36.377zm2.9609 6.9258c-3.2309 9.2699 13.61 8.5614-0.3457 21.957 4.4963-9.7174-10.794-9.9833 0.3457-21.957zm-8.2793 5.9629c-2.2098 6.2668 9.0353 7.1343-0.25391 15.998 3.058-7.0274-7.5255-7.2579 0.25391-15.998zm-17.355 13.25c6.8748 5e-3 10.413 7.5547 22.578 7.5547 11.955 0 16.437-7.3944 22.627-7.543 5.8387 0 10.408 4.5182 10.408 10.291 0 2.6489-1.2161 5.0317-3.209 7.1289 3.0689 9.6324-11.043 18.256-29.729 18.256-18.062 0-33.052-8.3439-29.717-18.289-2.0039-2.1027-3.2266-4.4774-3.2266-7.1016 0-5.092 3.8031-9.4713 8.8457-10.193 0.49153-0.0712 0.96356-0.10385 1.4219-0.10352zm2.0508 6.207c-1.6322 0.08052-3.2365 0.73891-4.4375 1.5508-1.6415 1.1063 0.01461 3.6121 1.6836 2.5059 2.218-1.4769 4.4666-1.6242 5.7129 0.7832 0.55723 1.0843 1.3228 2.5681 3.4941 3.2383 1.9956 0.62014 3.3703-0.04111 4.375-0.52148 2.1576-1.0266 3.0167-0.49771 4.5566 1.1328 3.1266 3.3019 6.3985 3.401 9.5938 0.11524 2.0423-2.0946 2.8801-2.0087 4.9883-1.0781 3.5905 1.5867 6.1602 1.081 8.3535-2.1855 1.4-2.0722 2.8067-2.8564 6.1035-0.79492v-2e-3c1.5921 1.1995 3.4097-1.2184 1.8066-2.418-3.456-2.5913-7.5612-2.7001-10.416 1.5273-1.4082 2.1002-2.4466 2.0765-4.6289 1.1074-3.2776-1.4383-5.4622-1.2539-8.3691 1.7383-2.1109 2.1705-3.345 1.9116-5.2363-0.08398-2.4293-2.567-4.6956-3.3925-8.0527-1.7812-2.045 0.97738-2.9973 0.34302-3.8867-1.3809-1.3958-2.7053-3.542-3.5567-5.6406-3.4531zm-0.21094 10.27c-2.0494 0.11234-3.8711 1.5996-3.8711 3.6562 0 4.0078 9.8537 10.064 24.707 10.064 16.218 0 24.703-6.5485 24.703-10.057 0-2.7247-3.3278-4.9526-7.0254-2.6523-4.3344 2.6846-9.063 4.4746-17.68 4.4746-9.6241 0-16.023-3.9118-18.768-5.1113-0.67459-0.29784-1.3833-0.41244-2.0664-0.375z" fill="#0ccfff" style="paint-order:normal"/>
  <g transform="scale(.99334 1.0067)" fill="#fff" stroke-width=".26458" aria-label="!hotdog">
   <path d="m72.357 148.12h2.1487v-2.4024h-2.1487zm0.19398-3.7304h1.7607l0.2089-6.4163h-2.1636z"/>
   <path d="m78.434 148.12v-5.6105s0.70131-0.23875 1.3579-0.23875c0.9699 0 1.1191 0.73116 1.1191 1.8503v3.999h1.9995v-4.0438c0-2.283-0.53718-3.5961-2.6262-3.5961-0.82069 0-1.8503 0.53717-1.8503 0.53717v-3.3424h-1.9995v10.445z"/>
   <path d="m87.726 140.48c-2.5964 0-3.432 1.5966-3.432 3.8945s0.83561 3.9244 3.432 3.9244c2.5964 0 3.432-1.6264 3.432-3.9244s-0.83561-3.8945-3.432-3.8945zm0 6.1178c-1.1042 0-1.4026-0.77592-1.4026-2.2233 0-1.4474 0.29843-2.1935 1.4026-2.1935 1.1042 0 1.4026 0.74608 1.4026 2.1935 0 1.4474-0.29843 2.2233-1.4026 2.2233z"/>
   <path d="m96.743 142.36v-1.701h-1.8354v-2.0741h-1.9995v2.0741h-0.88037v1.701h0.88037v3.1037c0 2.1487 0.52226 2.8351 2.3278 2.8351 0.52225 0 1.522-0.22382 1.522-0.22382l-0.08953-1.5966s-0.71624 0.0298-1.134 0.0298c-0.62671 0-0.62671-0.3432-0.62671-1.0893v-3.0589z"/>
   <path d="m104.37 137.67h-1.9995v3.0142s-1.0594-0.2089-1.6115-0.2089c-2.0293 0-3.0888 1.149-3.0888 3.8796 0 2.6262 0.65655 3.9393 2.9097 3.9393 0.761 0 1.8055-0.49241 1.8055-0.49241v0.31336h1.9846zm-3.4469 8.8336c-0.94006 0-1.2236-0.62671-1.2236-2.1487 0-1.5071 0.46257-2.1487 1.2086-2.1487 0.64162 0 1.4623 0.14921 1.4623 0.14921v3.9244s-0.74608 0.22383-1.4474 0.22383z"/>
   <path d="m109.26 140.48c-2.5964 0-3.432 1.5966-3.432 3.8945s0.83561 3.9244 3.432 3.9244 3.432-1.6264 3.432-3.9244-0.83561-3.8945-3.432-3.8945zm0 6.1178c-1.1042 0-1.4026-0.77592-1.4026-2.2233 0-1.4474 0.29843-2.1935 1.4026-2.1935 1.1042 0 1.4026 0.74608 1.4026 2.1935 0 1.4474-0.29843 2.2233-1.4026 2.2233z"/>
   <path d="m117.37 151.55c1.9249 0 3.5364-0.68639 3.5364-2.5068 0-1.6712-0.71623-2.2382-3.2529-2.2532-1.2683-0.0149-1.4474-0.10445-1.4474-0.49241 0-0.19399 0.14922-0.58195 0.14922-0.58195 0.13429 0.0298 0.44765 0.0597 0.61178 0.0597 2.0443 0 3.1484-0.53718 3.1484-2.6262 0-0.43273-0.19398-0.80577-0.32827-1.0147l1.1191 0.0895v-1.5966l-2.4024 0.0746s-0.85053-0.19398-1.5071-0.19398c-1.7458 0-3.1335 0.71623-3.1335 2.6411 0 1.2982 0.49241 1.8503 1.0147 2.2233 0 0-0.58194 0.82068-0.58194 1.1937 0 0.46257 0.22383 0.91022 0.5521 1.134-0.74608 0.58194-1.0744 1.0893-1.0744 1.7757 0 1.6712 1.4176 2.0741 3.5961 2.0741zm0.11938-3.0291c1.1042 0.0149 1.4026 0.0746 1.4026 0.64163 0 0.53717-0.53717 0.74607-1.5071 0.74607-1.1191 0-1.6414-0.2089-1.6414-0.64162 0-0.37304 0.14922-0.59687 0.40289-0.85053 0 0 0.92513 0.10445 1.3429 0.10445zm-0.47749-4.2676c-0.80577 0-1.149-0.40288-1.149-1.1042 0-0.70132 0.34319-1.0893 1.149-1.0893 0.80576 0 1.134 0.38796 1.134 1.0893 0 0.70131-0.32828 1.1042-1.134 1.1042z"/>
  </g>
 </g>
</svg>
